<svg xmlns:svg="http://www.w3.org/2000/svg" xmlns="http://www.w3.org/2000/svg" version="1.0" x="0.00000000" y="0.00000000" width="551.21130" height="271.68210" viewBox="-2982 0 6125 3019" id="svg1847" xml:space="preserve">
 <defs id="defs1849">
  <style type="text/css" id="style1851"/>
 </defs>
  <g id="Layer 5">
  <path d="M -2980.0000,3017.0000 L 3141.0000,3017.0000 L 3141.0000,1.0000000 L -2980.0000,1.0000000 L -2980.0000,3017.0000 z " style="fill:#ffffff;stroke:#aaa9a9;stroke-width:3.0000000" id="21323888"/>
    <path d="M 3141.0000,3017.0000 L -2980.0000,3017.0000 L -2980.0000,2063.0000 L 3141.0000,2063.0000 L 3141.0000,3017.0000 z " style="fill:#209c3a" id="21323976"/>
    <path d="M 3141.0000,2015.0000 L -2980.0000,2015.0000 L -2980.0000,1010.0000 L 3141.0000,1010.0000 L 3141.0000,2015.0000 z " style="fill:#da251d" id="21324064"/>
    <path d="M -2980.0000,1974.0000 L 3141.0000,1974.0000 L 3141.0000,1051.0000 L -2980.0000,1051.0000 L -2980.0000,1974.0000 z " style="fill:#f7bd29" id="21324152"/>
    <path d="M 3141.0000,966.00000 L -2980.0000,966.00000 L -2980.0000,1.0000000 L 3141.0000,1.0000000 L 3141.0000,966.00000 z " style="fill:#008eb7" id="21324240"/>
 </g>
  <g id="Layer 3">
  <path d="M -1414.0000,656.00000 L -1489.0000,604.00000 L -1399.0000,604.00000 L -1372.0000,515.00000 L -1341.0000,604.00000 L -1248.0000,604.00000 L -1322.0000,659.00000 L -1292.0000,742.00000 L -1366.0000,690.00000 L -1441.0000,745.00000 L -1414.0000,656.00000 z " style="fill:#ffffff" id="21324416"/>
    <path d="M -1659.0000,656.00000 L -1733.0000,604.00000 L -1643.0000,604.00000 L -1616.0000,515.00000 L -1585.0000,604.00000 L -1492.0000,604.00000 L -1566.0000,659.00000 L -1536.0000,742.00000 L -1610.0000,690.00000 L -1685.0000,745.00000 L -1659.0000,656.00000 z " style="fill:#ffffff" id="21324504"/>
    <path d="M -1903.0000,656.00000 L -1977.0000,604.00000 L -1887.0000,604.00000 L -1860.0000,515.00000 L -1829.0000,604.00000 L -1736.0000,604.00000 L -1810.0000,659.00000 L -1780.0000,742.00000 L -1854.0000,690.00000 L -1929.0000,745.00000 L -1903.0000,656.00000 z " style="fill:#ffffff" id="21324592"/>
    <path d="M -1781.0000,499.00000 L -1855.0000,447.00000 L -1765.0000,447.00000 L -1738.0000,357.00000 L -1707.0000,447.00000 L -1614.0000,447.00000 L -1688.0000,501.00000 L -1658.0000,585.00000 L -1732.0000,533.00000 L -1807.0000,588.00000 L -1781.0000,499.00000 z " style="fill:#ffffff" id="21324680"/>
    <path d="M -1536.0000,499.00000 L -1611.0000,447.00000 L -1521.0000,447.00000 L -1494.0000,357.00000 L -1463.0000,447.00000 L -1370.0000,447.00000 L -1444.0000,501.00000 L -1414.0000,585.00000 L -1488.0000,533.00000 L -1563.0000,588.00000 L -1536.0000,499.00000 z " style="fill:#ffffff" id="21324768"/>
    <path d="M -2069.0000,721.00000 C -2083.0000,723.00000 -2098.0000,724.00000 -2113.0000,724.00000 C -2252.0000,724.00000 -2365.0000,622.00000 -2365.0000,496.00000 C -2365.0000,370.00000 -2252.0000,267.00000 -2113.0000,267.00000 C -2104.0000,267.00000 -2095.0000,267.00000 -2086.0000,268.00000 C -2129.0000,243.00000 -2179.0000,229.00000 -2233.0000,229.00000 C -2389.0000,229.00000 -2517.0000,350.00000 -2517.0000,500.00000 C -2517.0000,649.00000 -2389.0000,771.00000 -2233.0000,771.00000 C -2172.0000,771.00000 -2115.0000,752.00000 -2069.0000,721.00000 z " style="fill:#ffffff" id="21324856"/>
 </g>
</svg>
