<?xml version="1.0" standalone="no"?>
<!DOCTYPE svg PUBLIC "-//W3C//DTD SVG 20010904//EN"
 "http://www.w3.org/TR/2001/REC-SVG-20010904/DTD/svg10.dtd">
<svg version="1.0" xmlns="http://www.w3.org/2000/svg"
 width="100.000000pt" height="100.000000pt" viewBox="0 0 100.000000 100.000000"
 preserveAspectRatio="xMidYMid meet">

<g transform="translate(0.000000,100.000000) scale(0.100000,-0.100000)"
fill="#000000" stroke="none">
<path d="M418 987 c-135 -38 -230 -178 -214 -315 4 -30 14 -70 24 -90 29 -58
213 -375 230 -394 18 -21 65 -24 80 -5 31 38 235 397 249 439 30 93 -1 212
-74 285 -77 77 -193 108 -295 80z m187 -61 c114 -54 169 -175 135 -296 -14
-49 -225 -405 -240 -405 -7 0 -65 90 -128 199 -105 181 -116 205 -120 258 -14
191 181 326 353 244z"/>
<path d="M420 847 c-73 -38 -108 -129 -79 -204 15 -40 67 -91 107 -104 104
-34 222 53 222 164 0 54 -40 118 -90 144 -55 29 -105 29 -160 0z m148 -43 c71
-49 67 -170 -8 -209 -106 -55 -214 46 -170 159 21 56 127 86 178 50z"/>
<path d="M265 294 c-79 -19 -139 -56 -155 -94 -37 -88 84 -168 291 -192 166
-20 363 14 444 76 76 58 67 134 -21 176 -59 29 -156 52 -167 41 -13 -13 1 -31
22 -31 31 0 108 -31 126 -50 42 -46 -30 -91 -180 -111 -185 -24 -422 15 -441
73 -12 37 20 57 154 94 15 4 12 26 -4 30 -5 1 -36 -4 -69 -12z"/>
</g>
</svg>
