<svg width="24" height="20" viewBox="0 0 24 20" fill="none" xmlns="http://www.w3.org/2000/svg">
<path d="M11.8137 18.8905C11.8013 19.4292 11.3011 19.8198 10.8009 19.7294C11.4874 19.8542 13.0851 20.0289 13.9839 19.7294C13.463 19.8075 12.9877 19.4127 12.9753 18.8864C12.9753 18.9152 12.6239 16.1231 14.0294 13.5408C15.2323 11.3327 15.902 11.5629 17.3116 11.0284C19.118 10.3417 20.9741 9.6344 22.2473 8.09241C24.3265 5.57175 23.7767 2.11768 23.599 1.18426C21.3668 4.37105 19.1056 3.46641 16.8279 4.91795C14.513 6.39415 13.4796 8.72154 13.7028 11.2134C15.997 7.22478 18.8948 8.9806 21.8876 4.99196C21.1601 6.19267 20.1638 7.23711 18.9237 7.98138C17.1421 9.06695 16.2823 8.75033 13.5829 12.6485C13.0869 13.364 12.6859 14.1453 12.3965 14.9636C12.0617 14.0178 11.578 13.109 10.9663 12.3113C9.73853 10.72 9.19701 9.81944 8.12223 9.0505C6.65062 7.98961 4.14556 7.58252 2.12416 4.23535C5.4973 8.73799 8.65962 6.68199 11.2308 11.16C11.4871 8.32268 10.2801 5.76913 7.75433 4.15723C5.22034 2.54121 2.70701 3.54865 0.22263 0C0.02421 1.04033 -0.587584 4.88505 1.72732 7.68943C3.1404 9.40244 5.19401 10.1842 7.19658 10.9466L7.21694 10.9544C8.18011 11.3203 10.6562 11.4313 11.6235 15.8188C11.8881 17.036 11.8426 17.7391 11.8137 18.8905Z" fill="#00730C"/>
</svg>
